<?xml version="1.0" encoding="UTF-8"?>
<svg width="200px" height="200px" viewBox="0 0 200 200" version="1.1" xmlns="http://www.w3.org/2000/svg">
    <defs>
        <linearGradient x1="0%" y1="0%" x2="100%" y2="100%" id="logoGradient">
            <stop stop-color="#6E56CF" offset="0%"></stop>
            <stop stop-color="#4338CA" offset="50%"></stop>
            <stop stop-color="#3B82F6" offset="100%"></stop>
        </linearGradient>
        <filter id="glow" x="-50%" y="-50%" width="200%" height="200%">
            <feGaussianBlur stdDeviation="5" result="blur"></feGaussianBlur>
            <feComposite in="SourceGraphic" in2="blur" operator="over"></feComposite>
        </filter>
    </defs>
    <g stroke="none" fill="none">
        <!-- Outer hexagon -->
        <path d="M100,10 L170,50 L170,150 L100,190 L30,150 L30,50 Z" stroke="url(#logoGradient)" stroke-width="4" fill="rgba(17, 24, 39, 0.8)"></path>
        
        <!-- Inner hexagon -->
        <path d="M100,40 L145,65 L145,115 L100,140 L55,115 L55,65 Z" stroke="url(#logoGradient)" stroke-width="2" fill="rgba(17, 24, 39, 0.5)"></path>
        
        <!-- Central circle -->
        <circle cx="100" cy="100" r="25" fill="url(#logoGradient)" filter="url(#glow)"></circle>
        
        <!-- Connecting lines -->
        <line x1="100" y1="40" x2="100" y2="75" stroke="url(#logoGradient)" stroke-width="2"></line>
        <line x1="145" y1="65" x2="125" y2="100" stroke="url(#logoGradient)" stroke-width="2"></line>
        <line x1="145" y1="115" x2="125" y2="100" stroke="url(#logoGradient)" stroke-width="2"></line>
        <line x1="100" y1="140" x2="100" y2="125" stroke="url(#logoGradient)" stroke-width="2"></line>
        <line x1="55" y1="115" x2="75" y2="100" stroke="url(#logoGradient)" stroke-width="2"></line>
        <line x1="55" y1="65" x2="75" y2="100" stroke="url(#logoGradient)" stroke-width="2"></line>
        
        <!-- Dots at vertices -->
        <circle cx="100" cy="40" r="4" fill="url(#logoGradient)"></circle>
        <circle cx="145" cy="65" r="4" fill="url(#logoGradient)"></circle>
        <circle cx="145" cy="115" r="4" fill="url(#logoGradient)"></circle>
        <circle cx="100" cy="140" r="4" fill="url(#logoGradient)"></circle>
        <circle cx="55" cy="115" r="4" fill="url(#logoGradient)"></circle>
        <circle cx="55" cy="65" r="4" fill="url(#logoGradient)"></circle>
    </g>
</svg>
